<?xml version="1.0" encoding="UTF-8"?>
<svg id="Layer_2" data-name="Layer 2" xmlns="http://www.w3.org/2000/svg" viewBox="0 0 57.78 27.69">
    <defs>
        <style>
            .cls-1 {
            fill: #231f20;
            stroke: #231f20;
            stroke-miterlimit: 10;
            }
        </style>
    </defs>
    <g id="Layer_1-2">
        <g>
            <path class="cls-1"
                  d="m1.33.75c-.14-.14-.32-.18-.54-.11-.19.07-.29.23-.29.47v25.56c0,.34.16.5.47.5.34,0,.5-.17.5-.5V2.26l11.81,11.81v12.6c0,.34.16.5.47.5.34,0,.5-.17.5-.5v-12.78c0-.14-.05-.26-.14-.36L1.33.75Z"/>
            <path class="cls-1"
                  d="m32.85.79c-.26-.05-.44.04-.54.25l-5.87,11.84L20.53,1.04c-.05-.12-.12-.2-.22-.23-.1-.04-.2-.04-.32-.02-.24.05-.36.2-.36.47v25.45c0,.24.12.4.36.47.12.02.23.01.32-.04.1-.05.17-.13.22-.25l5.9-11.84,5.87,11.84c.12.19.26.29.43.29h.11c.26-.1.4-.25.4-.47V1.26c0-.26-.13-.42-.4-.47Zm-.58,2.52v21.35l-5.29-10.69,5.29-10.66Zm-11.66,21.35V3.31l5.29,10.66-5.29,10.69Z"/>
            <path class="cls-1"
                  d="m42.55,18.61l3.78-8.64c.07-.17.05-.34-.07-.5L39.49.72c-.12-.17-.3-.22-.54-.14-.22.1-.32.25-.32.47v25.34c0,.34.16.5.47.5.34,0,.5-.17.5-.5V2.41l5.72,7.42-3.82,8.71c-.07.24-.02.43.14.58l4.39,3.49c.24.22.47.19.68-.07.07-.1.1-.21.09-.34-.01-.13-.07-.23-.16-.31l-4.1-3.28Z"/>
            <path class="cls-1"
                  d="m57.09,5.4l-5.33-4.66c-.04-.08-.11-.14-.19-.17-.06-.04-.12-.07-.2-.07-.12,0-.23.05-.33.13-.02.01-.04.02-.05.04,0,0,0,0-.01,0,0,0,0,.02,0,.02-.06.08-.09.17-.1.3,0,0,0,0,0,.01,0,0,0,0,0,0,0,0,0,0,0,.01v25.42c0,.31.17.47.5.47.31,0,.47-.16.47-.47V2.06l4.61,4.05c.26.22.49.2.68-.04.22-.26.2-.49-.04-.68Z"/>
        </g>
    </g>
</svg>