<?xml version="1.0" encoding="UTF-8"?>
<svg id="Layer_2" data-name="Layer 2" xmlns="http://www.w3.org/2000/svg" viewBox="0 0 264.98 390.03">
    <defs>
        <style>
            .cls-1 {
            fill: #ef4136;
            stroke-width: 0px;
            }
        </style>
    </defs>
    <g id="Layer_1-2">
        <g>
            <path class="cls-1" d="m222.25,357.15s.37-.22.9-.75c-.3.25-.59.5-.9.75Z"/>
            <path class="cls-1" d="m237.54,349.39c-.37.32-.73.64-1.12.96,0,0,.47-.27,1.12-.96Z"/>
            <path class="cls-1"
                  d="m222.25,195.37c64.17-37.37,56.72-157.43-26.77-195.37.68.54,28.83,23.12,11.46,61.21-16.41,36.01-23.18,64.11-16.84,95.61-.26-.19-.53-.38-.79-.57-33.94-24.25-79.69-24.25-113.63,0-.27.19-.53.38-.79.57,6.34-31.5-.43-59.6-16.84-95.61C40.67,23.12,68.82.54,69.5,0-13.99,37.94-21.44,158,42.73,195.37c-18.06,39.74-13.75,83.02-24.38,92.05,0,0-17.01,19.27-10.2,40.25,0,0-.57-7.36,6.79-15.3-.23.52-8.43,18.87,12.5,37.02-2.01-2.16-5.72-8.4-2.28-23.42,0,0-2.19,14.83,16.67,30.44-1.42-1.4-4.01-5.03-4.01-12.87,18.33,26.08,62.74,26.65,70.11,31.75,7.37,5.11,6.23,14.74,24.56,14.74s17.19-9.63,24.56-14.74c7.37-5.1,51.78-5.67,70.11-31.75,0,7.84-2.59,11.47-4.01,12.87,18.86-15.61,16.67-30.44,16.67-30.44,3.44,15.02-.27,21.26-2.28,23.42,20.93-18.15,12.73-36.5,12.5-37.02,7.36,7.94,6.79,15.3,6.79,15.3,6.81-20.98-10.2-40.25-10.2-40.25-10.63-9.03-6.32-52.31-24.38-92.05Zm-122.07,87.7c-32.5,7.94-86.39-9.07-50.48-55.75,24.19,0,52.56,17.77,50.48,55.75Zm37.73,51.61c-2.62,3.79-8.22,3.79-10.84,0-13.62-19.71-26.09-43.1,5.42-29.43,31.51-13.67,19.04,9.72,5.42,29.43Zm26.89-51.61c-2.08-37.98,26.29-55.75,50.48-55.75,35.91,46.68-17.98,63.69-50.48,55.75Z"/>
            <path class="cls-1" d="m41.83,356.41c.53.52.9.75.9.75-.31-.25-.6-.5-.9-.75Z"/>
            <path class="cls-1" d="m28.56,350.35c-.39-.32-.75-.64-1.12-.96.65.69,1.12.96,1.12.96Z"/>
        </g>
    </g>
</svg>