<svg id="Layer_2" data-name="Layer 2" xmlns="http://www.w3.org/2000/svg" viewBox="0 0 57.78 27.69">
    <g id="Layer_1-2">
        <g>
            <path class="cls-1" fill="whitesmoke" stroke="whitesmoke" stroke-miterlimit="10"
                  d="m1.33.75c-.14-.14-.32-.18-.54-.11-.19.07-.29.23-.29.47v25.56c0,.34.16.50.47.50.34,0,.50-.17.50-.50V2.26l11.81,11.81v12.60c0,.34.16.50.47.50.34,0,.50-.17.50-.50v-12.78c0-.14-.05-.26-.14-.36L1.33.75Z"/>
            <path class="cls-1" fill="whitesmoke" stroke="whitesmoke" stroke-miterlimit="10"
                  d="m32.85.79c-.26-.05-.44.04-.54.25l-5.87,11.84L20.53,1.04c-.05-.12-.12-.20-.22-.23-.10-.04-.20-.04-.32-.02-.24.05-.36.20-.36.47v25.45c0,.24.12.40.36.47.12.02.23.01.32-.04.10-.05.17-.13.22-.25l5.90-11.84 5.87,11.84c.12.19.26.29.43.29h.11c.26-.10.40-.25.40-.47V1.26c0-.26-.13-.42-.40-.47Zm-.58,2.52v21.35l-5.29-10.69 5.29-10.66Zm-11.66,21.35V3.31l5.29,10.66-5.29-10.69Z"/>
            <path class="cls-1" fill="whitesmoke" stroke="whitesmoke" stroke-miterlimit="10"
                  d="m42.55,18.61l3.78-8.64c.07-.17.05-.34-.07-.50L39.49.72c-.12-.17-.30-.22-.54-.14-.22.10-.32.25-.32.47v25.34c0,.34.16.50.47.50.34,0,.50-.17.50-.50V2.41l5.72,7.42-3.82,8.71c-.07.24-.02.43.14.58l4.39,3.49c.24.22.47.19.68-.07.07-.10.10-.21.09-.34-.01-.13-.07-.23-.16-.31l-4.10-3.28Z"/>
            <path class="cls-1" fill="whitesmoke" stroke="whitesmoke" stroke-miterlimit="10"
                  d="m57.09,5.40l-5.33-4.66c-.04-.08-.11-.14-.19-.17-.06-.04-.12-.07-.20-.07-.12,0-.23.05-.33.13-.02.01-.04.02-.05.04,0,0,0,0-.01,0,0,0,0,.02,0,.02-.06.08-.09.17-.10.30,0,0,0,0,0,.01,0,0,0,0,0,0,0,0,0,0,0,.01v25.42c0,.31.17.47.50.47.31,0,.47-.16.47-.47V2.06l4.61,4.05c.26.22.49.20.68-.04.22-.26.20-.49-.04-.68Z"/>
        </g>
    </g>
</svg>
